<svg width="99" height="99" viewBox="0 0 99 99" fill="none" xmlns="http://www.w3.org/2000/svg">
  <path fill-rule="evenodd" clip-rule="evenodd" d="M98.6401 49.3199C98.6401 76.5587 76.5586 98.64 49.3198 98.64C22.0811 98.64 0 76.5587 0 49.3199C0 22.0813 22.0811 0 49.3198 0C76.5586 0 98.6401 22.0813 98.6401 49.3199ZM60.5349 63.7435C62.6071 63.0078 64.599 62.0552 66.4788 60.901C68.2916 59.7557 69.7796 58.5182 70.9687 57.1505C71.5525 58.2974 71.8567 59.5709 71.8557 60.8631C71.8428 62.9674 70.9703 64.8789 69.6455 66.4146C68.3207 67.9504 66.5887 69.178 64.5643 70.1915C60.5026 72.1837 55.1935 73.2993 49.3772 73.2614C40.6463 73.123 33.1319 70.6298 29.2285 66.0571C27.9489 64.5229 27.0926 62.5785 27.1152 60.4775C27.1217 60.288 27.1314 60.1034 27.1411 59.9271C27.1599 59.9419 27.1771 59.961 27.1946 59.9803C27.2161 60.0042 27.238 60.0285 27.2639 60.0458C32.072 64.663 40.4847 66.8249 50.3401 65.9648H50.3724C51.4372 65.856 52.4809 65.7094 53.5036 65.5363C56.1726 65.1919 58.5783 64.5674 60.5349 63.7435ZM27.2299 49.5408C32.1609 53.55 40.0937 55.3033 49.3029 54.5832C63.8922 53.4528 69.3224 46.6208 70.6181 44.8989C71.4859 46.2334 71.9485 47.7994 71.9478 49.4007C71.9413 51.51 71.0608 53.4182 69.7473 54.9572C68.4338 56.4963 66.6856 57.724 64.6628 58.7308C60.6011 60.7296 55.2921 61.8452 49.4758 61.8073C40.748 61.6623 33.2304 59.179 29.3303 54.603C28.1573 53.1957 27.3495 51.4408 27.2299 49.5408ZM64.7485 47.2767C60.6948 49.2788 55.3858 50.3911 49.5695 50.3532C40.8434 50.2082 33.3177 47.7249 29.4175 43.1522C28.1412 41.6048 27.2784 39.6604 27.301 37.5627C27.3236 35.465 28.1912 33.5519 29.5112 32.0145C30.8312 30.477 32.568 29.256 34.607 28.2376C38.6606 26.2454 43.968 25.1331 49.7844 25.1743C58.5185 25.3176 66.0232 27.796 69.9331 32.3753C71.2159 33.9193 72.0528 35.8605 72.0431 37.9582C72.0334 40.0559 71.1497 41.9838 69.8394 43.4999C68.5226 45.0422 66.7761 46.2699 64.7485 47.2767ZM48.9959 27.9871C41.2925 27.8553 34.691 30.4342 32.568 33.0707C31.8474 33.9276 31.6035 34.623 31.6035 35.292C31.6035 35.961 31.8378 36.6663 32.5406 37.5462C33.2369 38.3932 34.4163 39.3242 35.9835 40.1234C39.1033 41.7466 43.7273 42.8704 48.8812 42.9083C56.5975 43.0401 63.1991 40.4612 65.3123 37.8247C66.0216 36.9645 66.2817 36.2543 66.2817 35.5935C66.2817 34.9328 66.0361 34.216 65.3414 33.3525C64.6467 32.489 63.4737 31.5712 61.9001 30.772C58.777 29.1406 54.1531 28.0201 48.9959 27.9871Z" fill="#0D78F2"/>
</svg>
