<svg width="279" height="293" viewBox="0 0 279 293" fill="none" xmlns="http://www.w3.org/2000/svg">
  <path d="M244.49 217.2C232.855 224.205 220.526 229.986 207.7 234.45C195.59 239.45 180.7 243.24 164.18 245.33C157.85 246.38 151.39 247.27 144.8 247.93H144.7H144.6C83.6 253.15 31.53 240.03 1.77 212.01C1.48 211.82 1.27 211.49 1.01 211.29C0.949998 212.36 0.889998 213.48 0.849998 214.63C0.709998 227.38 6.01 239.18 13.93 248.49C38.09 276.24 84.6 291.37 138.64 292.21C174.64 292.44 207.5 285.67 232.64 273.58C245.17 267.43 255.89 259.98 264.09 250.66C272.29 241.34 277.69 229.74 277.77 216.97C277.776 209.128 275.893 201.4 272.28 194.44C264.92 202.74 255.71 210.25 244.49 217.2ZM138.18 178.86C81.18 183.23 32.08 172.59 1.56 148.26C2.3 159.79 7.3 170.44 14.56 178.98C38.7 206.75 85.23 221.82 139.25 222.7C175.25 222.93 208.11 216.16 233.25 204.03C245.77 197.92 256.59 190.47 264.72 181.13C272.85 171.79 278.3 160.21 278.34 147.41C278.344 137.692 275.481 128.189 270.11 120.09C262.09 130.54 228.48 172 138.18 178.86ZM139.83 153.19C175.83 153.42 208.69 146.67 233.78 134.52C246.33 128.41 257.14 120.96 265.29 111.6C273.4 102.4 278.87 90.7 278.93 77.97C278.99 65.24 273.81 53.46 265.87 44.09C241.67 16.3 195.22 1.26001 141.16 0.390007C105.16 0.140007 72.31 6.89001 47.22 18.98C34.6 25.16 23.85 32.57 15.68 41.9C7.51 51.23 2.14 62.84 2 75.57C1.86 88.3 7.2 100.1 15.1 109.49C39.24 137.24 85.82 152.31 139.83 153.19ZM34.6 48.31C47.74 32.31 88.6 16.66 136.28 17.46C168.2 17.66 196.82 24.46 216.15 34.36C225.89 39.21 233.15 44.78 237.45 50.02C241.75 55.26 243.27 59.61 243.27 63.62C243.27 67.63 241.66 71.94 237.27 77.16C224.19 93.16 183.33 108.81 135.57 108.01C103.67 107.78 75.05 100.96 55.74 91.11C46.04 86.26 38.74 80.61 34.43 75.47C30.08 70.13 28.63 65.85 28.63 61.79C28.63 57.73 30.14 53.51 34.6 48.31Z" fill="url(#paint0_linear_2_14)"/>
  <defs>
    <linearGradient id="paint0_linear_2_14" x1="111.01" y1="422.37" x2="62.97" y2="881.46" gradientUnits="userSpaceOnUse">
      <stop offset="0.02"/>
    </linearGradient>
  </defs>
</svg>
